<svg xmlns="http://www.w3.org/2000/svg" width="512" height="512" viewBox="0 0 512 512">
  <defs>
    <radialGradient id="bg" cx="50%" cy="42%" r="75%">
      <stop offset="0" stop-color="#2c2114"/>
      <stop offset="1" stop-color="#0f0c08"/>
    </radialGradient>
    <radialGradient id="glow" cx="50%" cy="42%" r="58%">
      <stop offset="0" stop-color="#d4943a" stop-opacity="0.20"/>
      <stop offset="1" stop-color="#d4943a" stop-opacity="0"/>
    </radialGradient>
    <linearGradient id="g-gold" x1="0" y1="0" x2="0" y2="1">
      <stop offset="0" stop-color="#f9dd84"/><stop offset="1" stop-color="#dca02e"/>
    </linearGradient>
    <linearGradient id="g-steel" x1="0" y1="0" x2="0" y2="1">
      <stop offset="0" stop-color="#efe3c6"/><stop offset="1" stop-color="#a89878"/>
    </linearGradient>
  </defs>

  <rect width="512" height="512" fill="url(#bg)"/>
  <rect width="512" height="512" fill="url(#glow)"/>

  <g transform="translate(-4,-4) scale(5.2)">
    <g transform="rotate(-45 50 50)">
      <path d="M50 8 L53 15 L53 57 L47 57 L47 15 Z" fill="url(#g-steel)"/>
      <path d="M50 13 L50 55" fill="none" stroke="#c9bfa6" stroke-width="1" opacity="0.55"/>
      <path d="M36 57 L64 57 L61 63 L39 63 Z" fill="url(#g-gold)"/>
      <rect x="47.5" y="63" width="5" height="13" rx="1.5" fill="#6e4a24"/>
      <path d="M48 66.5 L52 66.5 M48 69.5 L52 69.5 M48 72.5 L52 72.5" fill="none" stroke="#3f2a14" stroke-width="1"/>
      <circle cx="50" cy="79" r="3.6" fill="url(#g-gold)"/>
    </g>
    <g transform="rotate(45 50 50)">
      <path d="M50 9 C43 19 41 33 43 44 C44 51 46 57 48 61 L50 63 L52 61 C54 57 56 51 57 44 C59 33 57 19 50 9 Z" fill="url(#g-gold)"/>
      <path d="M50 20 L44.5 17 M50 28 L43.5 26 M50 37 L44 36 M50 46 L45 46" fill="none" stroke="#b9791a" stroke-width="1.2" stroke-linecap="round"/>
      <path d="M50 20 L55.5 17 M50 28 L56.5 26 M50 37 L56 36 M50 46 L55 46" fill="none" stroke="#b9791a" stroke-width="1.2" stroke-linecap="round"/>
      <path d="M50 13 L50 78" fill="none" stroke="#8f5f16" stroke-width="1.7" stroke-linecap="round"/>
      <path d="M50 72 L47.4 78 L50 76 L52.6 78 Z" fill="url(#g-gold)"/>
    </g>
  </g>
</svg>
